<svg height="16" viewBox="0 0 4.2333 4.2333" width="16" xmlns="http://www.w3.org/2000/svg">
  <g transform="translate(0 -292.77)">
    <path d="m2.1094 293.03a.26461.26461 0 0 0 -.1582.0586l-1.25 1h-.4375a.26461.26461 0 0 0 -.26367.26367v1.0586a.26461.26461 0 0 0 .26367.26562h.4375l1.25 1a.26461.26461 0 0 0 .42969-.20703v-3.1758a.26461.26461 0 0 0 -.27148-.26367zm-.25781.81445v2.0742l-.89258-.71484a.26461.26461 0 0 0 -.16602-.0566h-.26367v-.5293h.26367a.26461.26461 0 0 0 .16602-.0586z"/>
    <g fill="none" stroke="#000" stroke-linecap="round" stroke-width=".26458">
      <path d="m3.4396 293.03.52917 1.0583-.52917.79375.52917.79375-.52917 1.0583"/>
      <path d="m2.7781 293.69.34018.68036-.34018.51027.34018.51026-.34018.68036"/>
    </g>
  </g>
</svg>
