<svg height="48" viewBox="0 0 12.7 12.7" width="48" xmlns="http://www.w3.org/2000/svg">
  <g transform="translate(0 -284.29998)">
    <circle cx="6.35" cy="290.64999" fill="#fff" fill-opacity=".966184" r="6.35"/>
    <path d="m9.1115906 285.93709 1.8851514 2.82774-.942575 1.88515.942575 1.88516-1.8851514 2.82773" fill="none" stroke="#0c0c0d" stroke-linecap="round" stroke-opacity=".8" stroke-width=".529167"/>
    <path d="m8.0086063 287.03676 1.4452879 2.16794-.7226443 1.44528.7226443 1.44532-1.4452879 2.16791" fill="none" stroke="#0c0c0d" stroke-linecap="round" stroke-opacity=".8" stroke-width=".529167"/>
    <path d="m5.8125 286.41602c-.066055.003-.1287624.0297-.1757812.0762l-2.6445313 2.57028h-1.0273437c-.1445484 0-.2497953.0499-.3710938.12109-.1212985.0712-.247486.17225-.3652344.30469-.23549673.26488-.43554685.66287-.43554685 1.17188s.20067304.9061.43750005 1.16601c.1184134.12996.245722.22819.3671874.29688.1214655.0687.2268528.11523.3671876.11523h.8652343l2.8125 2.57617c.1698094.15557.4435357.035.4433594-.19531v-7.9375c.0006564-.15006-.1234646-.27063-.2734375-.26562z" fill="#0c0c0d" fill-opacity=".8"/>
    <path d="m6.8969429 288.09303 1.0227809 1.53417-.5113906 1.02278.5113906 1.0228-1.0227809 1.53416" fill="none" stroke="#0c0c0d" stroke-linecap="round" stroke-opacity=".8" stroke-width=".529167"/>
  </g>
</svg>
